<svg width="62" height="62" viewBox="0 0 62 62" fill="none" xmlns="http://www.w3.org/2000/svg">
<path d="M54.125 25.751C54.125 43.5426 31.25 58.7926 31.25 58.7926C31.25 58.7926 8.375 43.5426 8.375 25.751C8.375 19.6841 10.785 13.8658 15.0749 9.57591C19.3648 5.28601 25.1832 2.87598 31.25 2.87598C37.3168 2.87598 43.1352 5.28601 47.4251 9.57591C51.715 13.8658 54.125 19.6841 54.125 25.751Z" fill="#9C2121"/>
<path d="M31.2503 38.4596C38.2689 38.4596 43.9587 32.7699 43.9587 25.7513C43.9587 18.7327 38.2689 13.043 31.2503 13.043C24.2317 13.043 18.542 18.7327 18.542 25.7513C18.542 32.7699 24.2317 38.4596 31.2503 38.4596Z" fill="#F5D76E"/>
</svg>
